<svg xmlns="http://www.w3.org/2000/svg" width="64" height="64" viewBox="0 0 64 64">
  <defs>
    <!-- 赛博艺术滤镜 -->
    <filter id="cyber-glow" x="-50%" y="-50%" width="200%" height="200%">
      <feMorphology operator="dilate" radius="2" in="SourceAlpha" result="morph"/>
      <feGaussianBlur in="morph" stdDeviation="4" result="blur"/>
      <feColorMatrix in="blur" type="matrix" values="1 0 0 0 0
                                              0 1 0 0 0
                                              0 0 1 0 0
                                              0 0 0 2 0" result="glow"/>
      <feTurbulence type="fractalNoise" baseFrequency="0.08" numOctaves="2" result="noise"/>
      <feDisplacementMap in="glow" in2="noise" scale="1" xChannelSelector="R" yChannelSelector="G" result="noisy-glow"/>
      <feComposite in="noisy-glow" in2="SourceGraphic" operator="over"/>
    </filter>
    
    <!-- 赛博渐变 -->
    <linearGradient id="heart-gradient" x1="0%" y1="0%" x2="100%" y2="100%">
      <stop offset="0%" style="stop-color:#001f3f;stop-opacity:1" />
      <stop offset="50%" style="stop-color:#00ff8f;stop-opacity:1" />
      <stop offset="100%" style="stop-color:#ff0080;stop-opacity:1" />
    </linearGradient>
  </defs>
  <!-- 背景 -->
  <rect width="64" height="64" fill="#0a0a1a"/>
  <!-- 爱心主体 -->
  <path d="M32 8C24 8 16 16 16 24C16 32 24 40 32 48C40 40 48 32 48 24C48 16 40 8 32 8Z" 
        fill="url(#heart-gradient)" 
        filter="url(#cyber-glow)"/>
  <!-- 内部光晕 -->
  <path d="M32 12C26 12 20 18 20 26C20 32 26 38 32 44C38 38 44 32 44 26C44 18 38 12 32 12Z" 
        fill="url(#heart-gradient)" 
        fill-opacity="0.5" 
        filter="url(#cyber-glow)"/>
  <!-- 中心亮点 -->
  <path d="M32 16C28 16 24 20 24 28C24 32 28 36 32 40C36 36 40 32 40 28C40 20 36 16 32 16Z" 
        fill="#ffffff" 
        fill-opacity="0.8" 
        filter="url(#cyber-glow)"/>
  <!-- 粒子效果 -->
  <g filter="url(#cyber-glow)">
    <circle cx="28" cy="16" r="1" fill="#00ff8f" opacity="0.8"/>
    <circle cx="36" cy="16" r="1" fill="#ff0080" opacity="0.8"/>
    <circle cx="24" cy="20" r="0.8" fill="#00ff8f" opacity="0.6"/>
    <circle cx="40" cy="20" r="0.8" fill="#ff0080" opacity="0.6"/>
  </g>
</svg>