<svg xmlns="http://www.w3.org/2000/svg" width="1152" height="512" viewBox="0 0 1152 512"><defs><pattern id="p" width="128" height="128" patternUnits="userSpaceOnUse"><ellipse cx="64" cy="120" rx="24" ry="4" fill="#d9d2e3"/><path d="M49 82h14v30H48zM65 82h14v30H65z" fill="#f0b39f"/><path d="M43 45c0-7 9-12 21-12s21 5 21 12v43H43z" fill="#f4b9a5"/><path d="M43 51c-8 4-10 17-6 31l9-2V54zM85 51c8 4 10 17 6 31l-9-2V54z" fill="#eaa18f"/><path d="M48 112h16v8H44q0-8 4-8zm17 0h16q4 0 4 8H65z" fill="#b85e68"/></pattern></defs><rect width="1152" height="512" fill="url(#p)"/></svg>
